<?xml version="1.0" standalone="no"?>
<!DOCTYPE svg PUBLIC "-//W3C//DTD SVG 20010904//EN"
 "http://www.w3.org/TR/2001/REC-SVG-20010904/DTD/svg10.dtd">
<svg version="1.0" xmlns="http://www.w3.org/2000/svg"
 width="4096.000000pt" height="4096.000000pt" viewBox="0 0 4096.000000 4096.000000"
 preserveAspectRatio="xMidYMid meet">

<g transform="translate(0.000000,4096.000000) scale(0.100000,-0.100000)"
fill="#000000" stroke="none">
<path d="M0 20480 l0 -20480 20480 0 20480 0 0 20480 0 20480 -20480 0 -20480
0 0 -20480z m33680 85 l0 -6015 -1085 0 -1085 0 0 6015 0 6015 1085 0 1085 0
0 -6015z m-26652 4708 l-3 -1138 -1135 0 -1135 0 -3 1138 -2 1137 1140 0 1140
0 -2 -1137z m12712 -918 l0 -1595 780 0 780 0 0 -930 0 -930 -780 0 -781 0 4
-1667 c2 -1221 7 -1697 16 -1778 19 -179 40 -284 76 -390 73 -219 175 -342
356 -433 122 -62 240 -94 424 -116 162 -19 425 -36 573 -36 l112 0 0 -1011 0
-1011 -332 6 c-522 11 -808 31 -1130 81 -458 71 -823 194 -1127 379 -139 85
-233 158 -359 281 -489 474 -714 1154 -772 2324 -6 130 -10 1700 -10 4312 l0
4109 1085 0 1085 0 0 -1595z m-6250 -1459 c971 -115 1681 -499 2200 -1191 403
-537 634 -1237 690 -2090 6 -91 10 -1114 10 -2607 l0 -2458 -1089 0 -1090 0
-4 2308 c-3 1648 -7 2336 -16 2407 -29 252 -83 500 -147 674 -230 621 -676
982 -1339 1086 -140 22 -464 31 -595 16 -432 -49 -786 -217 -1104 -521 -326
-313 -498 -701 -588 -1324 -22 -151 -22 -154 -28 -2396 l-5 -2245 -1075 0
-1075 0 -3 4103 -2 4102 1070 0 1070 0 2 -585 3 -586 67 90 c287 384 643 684
1065 899 366 186 735 293 1148 331 149 14 675 5 835 -13z m13230 -10 c537 -66
962 -188 1407 -408 652 -321 1161 -775 1567 -1396 392 -599 592 -1170 687
-1957 6 -49 13 -348 16 -662 l5 -573 -3220 0 -3220 0 30 -97 c94 -303 235
-567 422 -791 180 -214 439 -408 696 -523 280 -125 560 -188 943 -211 518 -31
1001 68 1468 303 262 131 490 292 683 481 104 103 123 118 139 108 37 -22
1532 -1162 1535 -1170 4 -12 -328 -349 -448 -455 -467 -409 -969 -702 -1535
-895 -340 -115 -637 -181 -1045 -231 -209 -26 -774 -37 -985 -20 -527 43 -966
148 -1415 338 -292 124 -465 217 -725 389 -585 386 -1043 910 -1370 1566 -356
715 -506 1534 -434 2368 109 1269 794 2428 1854 3137 587 393 1264 639 1935
702 63 6 131 13 150 15 94 11 732 -3 860 -18z m-19750 -4231 l0 -4105 -1080 0
-1080 0 0 4105 0 4105 1080 0 1080 0 0 -4105z m28690 -2624 c155 -53 265 -128
365 -248 63 -75 135 -216 160 -308 91 -345 -82 -733 -403 -898 -135 -70 -222
-92 -367 -91 -231 1 -410 78 -572 247 -90 94 -143 180 -187 306 -28 80 -30 96
-30 231 -1 125 2 155 23 220 88 281 294 483 571 559 62 17 98 20 210 18 121
-3 145 -7 230 -36z"/>
<path d="M25924 21060 c-601 -54 -1097 -271 -1465 -641 -146 -147 -272 -324
-353 -494 -74 -154 -126 -344 -126 -457 l0 -50 2168 7 c1192 4 2169 9 2171 12
10 8 -20 193 -44 278 -35 121 -121 297 -210 430 -328 490 -882 812 -1550 900
-142 19 -462 27 -591 15z"/>
<path d="M35250 15914 c-113 -24 -225 -86 -310 -173 -127 -129 -183 -269 -183
-461 -1 -129 13 -189 69 -307 207 -432 861 -470 1126 -65 92 143 128 332 94
502 -41 204 -157 360 -331 446 -49 24 -121 51 -160 59 -87 18 -219 18 -305 -1z
m380 -210 c51 -24 103 -71 127 -118 21 -40 29 -159 14 -214 -19 -69 -119 -162
-175 -162 -8 0 -17 -4 -20 -8 -3 -5 44 -91 104 -191 61 -100 110 -187 110
-192 0 -6 -36 -9 -87 -7 l-88 3 -114 188 -115 187 -58 0 -58 0 0 -190 0 -190
-85 0 -85 0 0 461 0 460 243 -3 c220 -3 246 -5 287 -24z"/>
<path d="M35270 15474 l0 -126 135 4 135 3 31 31 c27 27 30 37 30 89 0 101
-43 125 -223 125 l-108 0 0 -126z"/>
</g>
</svg>
